<svg xmlns="http://www.w3.org/2000/svg" width="180" height="44" viewBox="0 0 180 44">
  <rect width="180" height="44" rx="6" fill="#161B22" stroke="#21262D" stroke-width="0.5"/>
  <rect x="0" y="43" width="180" height="1" rx="0" fill="#484F58" opacity="0.15"/>
  <g transform="translate(14, 14) scale(0.66)" fill="#8B949E" opacity="0.7">
    <path d="M22 12c0-5.52-4.48-10-10-10S2 6.48 2 12c0 4.84 3.44 8.87 8 9.8V15h-2v-3h2V9.5C10 7.57 11.57 6 13.5 6H16v3h-2c-.55 0-1 .45-1 1v2h3l-.5 3H13v6.95c5.05-.5 9-4.76 9-9.95z"/>
  </g>
  <text x="38" y="26" fill="#8B949E" font-family="'SF Mono',monospace" font-size="10" letter-spacing="1.2">FACEBOOK</text>
  <text x="166" y="25" text-anchor="end" fill="#484F58" font-family="'SF Mono',monospace" font-size="10" opacity="0.4">→</text>
</svg>