<svg xmlns="http://www.w3.org/2000/svg" width="880" height="380" viewBox="0 0 880 380"
     data-version="2026-09-01T02:58:24Z"
     data-hash="aec179ae"
     data-build="6f25b4a">
  <metadata>
    <generated_at>2026-09-01T02:58:24Z</generated_at>
    <data_hash>aec179ae6a0303fb81f2f39b0522ab67dfc864feb59f05e53a67f2479201a3db</data_hash>
    <data_hash_short>aec179ae</data_hash_short>
    <build_sha>6f25b4a</build_sha>
    <synced>01 SEP 2026 · 16:34 UTC</synced>
  </metadata>
  <defs>
    <linearGradient id="dash-bg" x1="0" y1="0" x2="880" y2="380">
      <stop offset="0%" stop-color="#161B22"/>
      <stop offset="100%" stop-color="#1C2128"/>
    </linearGradient>
    <linearGradient id="chart-fill" x1="0" y1="0" x2="0" y2="1">
      <stop offset="0%" stop-color="#64FFDA" stop-opacity="0.25"/>
      <stop offset="50%" stop-color="#82AAFF" stop-opacity="0.08"/>
      <stop offset="100%" stop-color="#82AAFF" stop-opacity="0"/>
    </linearGradient>
    <linearGradient id="chart-stroke" x1="0" y1="0" x2="1" y2="0">
      <stop offset="0%" stop-color="#64FFDA" stop-opacity="0.9"/>
      <stop offset="50%" stop-color="#89DDFF" stop-opacity="0.8"/>
      <stop offset="100%" stop-color="#82AAFF" stop-opacity="0.6"/>
    </linearGradient>
    <filter id="glow" x="-20%" y="-20%" width="140%" height="140%">
      <feGaussianBlur stdDeviation="3" result="blur"/>
      <feMerge>
        <feMergeNode in="blur"/>
        <feMergeNode in="SourceGraphic"/>
      </feMerge>
    </filter>
  </defs>

  <!-- Shell -->
  <rect width="880" height="380" rx="8" fill="url(#dash-bg)" stroke="#30363D" stroke-width="0.5"/>

  <!-- Accent bar -->
  <rect x="0" y="0" width="880" height="1.5" rx="8" fill="#64FFDA" opacity="0.3"/>

  <!-- Subtle grid pattern -->
  <g opacity="0.02">
    <line x1="0" y1="0" x2="0" y2="380" stroke="#8B949E" stroke-width="0.5"/><line x1="44" y1="0" x2="44" y2="380" stroke="#8B949E" stroke-width="0.5"/><line x1="88" y1="0" x2="88" y2="380" stroke="#8B949E" stroke-width="0.5"/><line x1="132" y1="0" x2="132" y2="380" stroke="#8B949E" stroke-width="0.5"/><line x1="176" y1="0" x2="176" y2="380" stroke="#8B949E" stroke-width="0.5"/><line x1="220" y1="0" x2="220" y2="380" stroke="#8B949E" stroke-width="0.5"/><line x1="264" y1="0" x2="264" y2="380" stroke="#8B949E" stroke-width="0.5"/><line x1="308" y1="0" x2="308" y2="380" stroke="#8B949E" stroke-width="0.5"/><line x1="352" y1="0" x2="352" y2="380" stroke="#8B949E" stroke-width="0.5"/><line x1="396" y1="0" x2="396" y2="380" stroke="#8B949E" stroke-width="0.5"/><line x1="440" y1="0" x2="440" y2="380" stroke="#8B949E" stroke-width="0.5"/><line x1="484" y1="0" x2="484" y2="380" stroke="#8B949E" stroke-width="0.5"/><line x1="528" y1="0" x2="528" y2="380" stroke="#8B949E" stroke-width="0.5"/><line x1="572" y1="0" x2="572" y2="380" stroke="#8B949E" stroke-width="0.5"/><line x1="616" y1="0" x2="616" y2="380" stroke="#8B949E" stroke-width="0.5"/><line x1="660" y1="0" x2="660" y2="380" stroke="#8B949E" stroke-width="0.5"/><line x1="704" y1="0" x2="704" y2="380" stroke="#8B949E" stroke-width="0.5"/><line x1="748" y1="0" x2="748" y2="380" stroke="#8B949E" stroke-width="0.5"/><line x1="792" y1="0" x2="792" y2="380" stroke="#8B949E" stroke-width="0.5"/><line x1="836" y1="0" x2="836" y2="380" stroke="#8B949E" stroke-width="0.5"/>
  </g>

  <!-- Header -->
  <text x="24" y="28" fill="#484F58" font-family="'SF Mono',monospace" font-size="9" letter-spacing="2">GITHUB.ACTIVITY</text>
  <text x="185" y="28" fill="#484F58" font-family="'SF Mono',monospace" font-size="9" letter-spacing="1" opacity="0.35">— auto-synced github data</text>
  <circle cx="856" cy="22" r="3" fill="#27C93F" opacity="0.7"/>
  <text x="844" y="26" text-anchor="end" fill="#27C93F" font-family="'SF Mono',monospace" font-size="7.5" letter-spacing="1" opacity="0.7">LIVE</text>

  <line x1="24" y1="38" x2="856" y2="38" stroke="#21262D" stroke-width="0.4"/>

  <!-- Metrics row -->
  <text x="107" y="62" text-anchor="middle" fill="#484F58" font-family="'SF Mono',monospace" font-size="8" letter-spacing="1.5">CONTRIBUTIONS</text>
  <text x="107" y="92" text-anchor="middle" fill="#64FFDA" font-family="'Inter','Segoe UI',sans-serif" font-size="26" font-weight="600">228</text>
  <line x1="190" y1="52" x2="190" y2="96" stroke="#21262D" stroke-width="0.4"/>
  <text x="274" y="62" text-anchor="middle" fill="#484F58" font-family="'SF Mono',monospace" font-size="8" letter-spacing="1.5">REPOSITORIES</text>
  <text x="274" y="92" text-anchor="middle" fill="#E6EDF3" font-family="'Inter','Segoe UI',sans-serif" font-size="26" font-weight="600">11</text>
  <line x1="357" y1="52" x2="357" y2="96" stroke="#21262D" stroke-width="0.4"/>
  <text x="440" y="62" text-anchor="middle" fill="#484F58" font-family="'SF Mono',monospace" font-size="8" letter-spacing="1.5">STARS</text>
  <text x="440" y="92" text-anchor="middle" fill="#E6EDF3" font-family="'Inter','Segoe UI',sans-serif" font-size="26" font-weight="600">5</text>
  <line x1="523" y1="52" x2="523" y2="96" stroke="#21262D" stroke-width="0.4"/>
  <text x="606" y="62" text-anchor="middle" fill="#484F58" font-family="'SF Mono',monospace" font-size="8" letter-spacing="1.5">STREAK</text>
  <text x="606" y="92" text-anchor="middle" fill="#89DDFF" font-family="'Inter','Segoe UI',sans-serif" font-size="26" font-weight="600">5d</text>
  <line x1="690" y1="52" x2="690" y2="96" stroke="#21262D" stroke-width="0.4"/>
  <text x="773" y="62" text-anchor="middle" fill="#484F58" font-family="'SF Mono',monospace" font-size="8" letter-spacing="1.5">FOLLOWERS</text>
  <text x="773" y="92" text-anchor="middle" fill="#E6EDF3" font-family="'Inter','Segoe UI',sans-serif" font-size="26" font-weight="600">7</text>

  <!-- Metrics / chart separator -->
  <line x1="24" y1="110" x2="856" y2="110" stroke="#21262D" stroke-width="0.4"/>
  <text x="24" y="130" fill="#484F58" font-family="'SF Mono',monospace" font-size="7.5" letter-spacing="1.5" opacity="0.5">WEEKLY CONTRIBUTION ACTIVITY</text>
  <text x="856" y="130" text-anchor="end" fill="#484F58" font-family="'SF Mono',monospace" font-size="7.5" letter-spacing="1" opacity="0.35">52 WEEKS</text>

  <!-- Gridlines -->
  <line x1="56" y1="160.0" x2="848" y2="160.0" stroke="#21262D" stroke-width="0.4" opacity="0.5"/>
  <text x="48" y="163.0" text-anchor="end" fill="#484F58" font-family="'SF Mono',monospace" font-size="7.5" opacity="0.5">40</text>
  <line x1="56" y1="200.0" x2="848" y2="200.0" stroke="#21262D" stroke-width="0.4" opacity="0.5"/>
  <text x="48" y="203.0" text-anchor="end" fill="#484F58" font-family="'SF Mono',monospace" font-size="7.5" opacity="0.5">30</text>
  <line x1="56" y1="240.0" x2="848" y2="240.0" stroke="#21262D" stroke-width="0.4" opacity="0.5"/>
  <text x="48" y="243.0" text-anchor="end" fill="#484F58" font-family="'SF Mono',monospace" font-size="7.5" opacity="0.5">20</text>
  <line x1="56" y1="280.0" x2="848" y2="280.0" stroke="#21262D" stroke-width="0.4" opacity="0.5"/>
  <text x="48" y="283.0" text-anchor="end" fill="#484F58" font-family="'SF Mono',monospace" font-size="7.5" opacity="0.5">10</text>
  <line x1="56" y1="320.0" x2="848" y2="320.0" stroke="#21262D" stroke-width="0.4" opacity="0.5"/>
  <text x="48" y="323.0" text-anchor="end" fill="#484F58" font-family="'SF Mono',monospace" font-size="7.5" opacity="0.5">0</text>


  <!-- Area fill -->
  <path d="M 56.0,317.3 C 63.6,317.3 63.6,318.0 71.2,318.0 C 78.8,318.0 78.8,318.4 86.5,318.4 C 94.1,318.4 94.1,318.4 101.7,318.4 C 109.3,318.4 109.3,316.0 116.9,316.0 C 124.5,316.0 124.5,316.8 132.2,316.8 C 139.8,316.8 139.8,304.8 147.4,304.8 C 155.0,304.8 155.0,302.4 162.6,302.4 C 170.2,302.4 170.2,299.2 177.8,299.2 C 185.5,299.2 185.5,301.6 193.1,301.6 C 200.7,301.6 200.7,302.4 208.3,302.4 C 215.9,302.4 215.9,312.0 223.5,312.0 C 231.2,312.0 231.2,312.0 238.8,312.0 C 246.4,312.0 246.4,315.2 254.0,315.2 C 261.6,315.2 261.6,315.2 269.2,315.2 C 276.8,315.2 276.8,315.2 284.5,315.2 C 292.1,315.2 292.1,317.6 299.7,317.6 C 307.3,317.6 307.3,320.0 314.9,320.0 C 322.5,320.0 322.5,320.0 330.2,320.0 C 337.8,320.0 337.8,320.0 345.4,320.0 C 353.0,320.0 353.0,320.0 360.6,320.0 C 368.2,320.0 368.2,320.0 375.8,320.0 C 383.5,320.0 383.5,318.4 391.1,318.4 C 398.7,318.4 398.7,317.6 406.3,317.6 C 413.9,317.6 413.9,317.6 421.5,317.6 C 429.2,317.6 429.2,316.8 436.8,316.8 C 444.4,316.8 444.4,316.8 452.0,316.8 C 459.6,316.8 459.6,316.8 467.2,316.8 C 474.8,316.8 474.8,317.6 482.5,317.6 C 490.1,317.6 490.1,316.8 497.7,316.8 C 505.3,316.8 505.3,315.2 512.9,315.2 C 520.5,315.2 520.5,315.2 528.2,315.2 C 535.8,315.2 535.8,316.8 543.4,316.8 C 551.0,316.8 551.0,315.2 558.6,315.2 C 566.2,315.2 566.2,316.0 573.8,316.0 C 581.5,316.0 581.5,318.4 589.1,318.4 C 596.7,318.4 596.7,318.4 604.3,318.4 C 611.9,318.4 611.9,316.0 619.5,316.0 C 627.2,316.0 627.2,317.6 634.8,317.6 C 642.4,317.6 642.4,316.8 650.0,316.8 C 657.6,316.8 657.6,316.8 665.2,316.8 C 672.8,316.8 672.8,316.8 680.5,316.8 C 688.1,316.8 688.1,319.2 695.7,319.2 C 703.3,319.2 703.3,319.2 710.9,319.2 C 718.5,319.2 718.5,312.0 726.2,312.0 C 733.8,312.0 733.8,293.6 741.4,293.6 C 749.0,293.6 749.0,268.8 756.6,268.8 C 764.2,268.8 764.2,249.6 771.8,249.6 C 779.5,249.6 779.5,217.6 787.1,217.6 C 794.7,217.6 794.7,216.0 802.3,216.0 C 809.9,216.0 809.9,204.0 817.5,204.0 C 825.2,204.0 825.2,206.0 832.8,206.0 C 840.4,206.0 840.4,200.0 848.0,200.0 L 848.0,320 L 56.0,320 Z" fill="url(#chart-fill)" opacity="0.9"/>

  <!-- Line -->
  <path d="M 56.0,317.3 C 63.6,317.3 63.6,318.0 71.2,318.0 C 78.8,318.0 78.8,318.4 86.5,318.4 C 94.1,318.4 94.1,318.4 101.7,318.4 C 109.3,318.4 109.3,316.0 116.9,316.0 C 124.5,316.0 124.5,316.8 132.2,316.8 C 139.8,316.8 139.8,304.8 147.4,304.8 C 155.0,304.8 155.0,302.4 162.6,302.4 C 170.2,302.4 170.2,299.2 177.8,299.2 C 185.5,299.2 185.5,301.6 193.1,301.6 C 200.7,301.6 200.7,302.4 208.3,302.4 C 215.9,302.4 215.9,312.0 223.5,312.0 C 231.2,312.0 231.2,312.0 238.8,312.0 C 246.4,312.0 246.4,315.2 254.0,315.2 C 261.6,315.2 261.6,315.2 269.2,315.2 C 276.8,315.2 276.8,315.2 284.5,315.2 C 292.1,315.2 292.1,317.6 299.7,317.6 C 307.3,317.6 307.3,320.0 314.9,320.0 C 322.5,320.0 322.5,320.0 330.2,320.0 C 337.8,320.0 337.8,320.0 345.4,320.0 C 353.0,320.0 353.0,320.0 360.6,320.0 C 368.2,320.0 368.2,320.0 375.8,320.0 C 383.5,320.0 383.5,318.4 391.1,318.4 C 398.7,318.4 398.7,317.6 406.3,317.6 C 413.9,317.6 413.9,317.6 421.5,317.6 C 429.2,317.6 429.2,316.8 436.8,316.8 C 444.4,316.8 444.4,316.8 452.0,316.8 C 459.6,316.8 459.6,316.8 467.2,316.8 C 474.8,316.8 474.8,317.6 482.5,317.6 C 490.1,317.6 490.1,316.8 497.7,316.8 C 505.3,316.8 505.3,315.2 512.9,315.2 C 520.5,315.2 520.5,315.2 528.2,315.2 C 535.8,315.2 535.8,316.8 543.4,316.8 C 551.0,316.8 551.0,315.2 558.6,315.2 C 566.2,315.2 566.2,316.0 573.8,316.0 C 581.5,316.0 581.5,318.4 589.1,318.4 C 596.7,318.4 596.7,318.4 604.3,318.4 C 611.9,318.4 611.9,316.0 619.5,316.0 C 627.2,316.0 627.2,317.6 634.8,317.6 C 642.4,317.6 642.4,316.8 650.0,316.8 C 657.6,316.8 657.6,316.8 665.2,316.8 C 672.8,316.8 672.8,316.8 680.5,316.8 C 688.1,316.8 688.1,319.2 695.7,319.2 C 703.3,319.2 703.3,319.2 710.9,319.2 C 718.5,319.2 718.5,312.0 726.2,312.0 C 733.8,312.0 733.8,293.6 741.4,293.6 C 749.0,293.6 749.0,268.8 756.6,268.8 C 764.2,268.8 764.2,249.6 771.8,249.6 C 779.5,249.6 779.5,217.6 787.1,217.6 C 794.7,217.6 794.7,216.0 802.3,216.0 C 809.9,216.0 809.9,204.0 817.5,204.0 C 825.2,204.0 825.2,206.0 832.8,206.0 C 840.4,206.0 840.4,200.0 848.0,200.0" fill="none" stroke="url(#chart-stroke)" stroke-width="1.5" stroke-linecap="round" stroke-linejoin="round"/>

  <!-- Data point highlights -->
  <circle cx="787.1" cy="217.6" r="2" fill="#64FFDA" opacity="0.6"/>
  <circle cx="817.5" cy="204.0" r="2" fill="#64FFDA" opacity="0.6"/>
  <circle cx="848.0" cy="200.0" r="2" fill="#64FFDA" opacity="0.6"/>


  <!-- Peak marker -->
  <circle cx="817.5" cy="204.0" r="3.5" fill="#64FFDA" filter="url(#glow)" opacity="0.9"/>
  <circle cx="817.5" cy="204.0" r="1.5" fill="#fff"/>
  <text x="817.5" y="194.0" text-anchor="middle" fill="#64FFDA" font-family="'SF Mono',monospace" font-size="8" font-weight="600">40</text>

  <!-- Month labels -->
  <text x="71.2" y="338" text-anchor="middle" fill="#484F58" font-family="'SF Mono',monospace" font-size="8" opacity="0.6">Sep</text>
  <text x="132.2" y="338" text-anchor="middle" fill="#484F58" font-family="'SF Mono',monospace" font-size="8" opacity="0.6">Oct</text>
  <text x="193.1" y="338" text-anchor="middle" fill="#484F58" font-family="'SF Mono',monospace" font-size="8" opacity="0.6">Nov</text>
  <text x="269.2" y="338" text-anchor="middle" fill="#484F58" font-family="'SF Mono',monospace" font-size="8" opacity="0.6">Dec</text>
  <text x="330.2" y="338" text-anchor="middle" fill="#484F58" font-family="'SF Mono',monospace" font-size="8" opacity="0.6">Jan</text>
  <text x="391.1" y="338" text-anchor="middle" fill="#484F58" font-family="'SF Mono',monospace" font-size="8" opacity="0.6">Feb</text>
  <text x="452.0" y="338" text-anchor="middle" fill="#484F58" font-family="'SF Mono',monospace" font-size="8" opacity="0.6">Mar</text>
  <text x="528.2" y="338" text-anchor="middle" fill="#484F58" font-family="'SF Mono',monospace" font-size="8" opacity="0.6">Apr</text>
  <text x="589.1" y="338" text-anchor="middle" fill="#484F58" font-family="'SF Mono',monospace" font-size="8" opacity="0.6">May</text>
  <text x="665.2" y="338" text-anchor="middle" fill="#484F58" font-family="'SF Mono',monospace" font-size="8" opacity="0.6">Jun</text>
  <text x="726.2" y="338" text-anchor="middle" fill="#484F58" font-family="'SF Mono',monospace" font-size="8" opacity="0.6">Jul</text>
  <text x="787.1" y="338" text-anchor="middle" fill="#484F58" font-family="'SF Mono',monospace" font-size="8" opacity="0.6">Aug</text>


  <!-- Bottom axis line -->
  <line x1="56" y1="320" x2="848" y2="320" stroke="#21262D" stroke-width="0.4"/>

  <!-- Chart frame accent -->
  <line x1="56" y1="160" x2="56" y2="320" stroke="#21262D" stroke-width="0.4" opacity="0.3"/>

  <!-- Freshness marker -->
  <text x="24" y="366" fill="#484F58" font-family="'SF Mono',monospace" font-size="7" letter-spacing="1.5" opacity="0.35">SYNCED 01 SEP 2026 · 16:34 UTC</text>

  <!-- Sync commit marker -->
  <text x="856" y="366" text-anchor="end" fill="#484F58" font-family="'SF Mono',monospace" font-size="6.5" letter-spacing="0.5" opacity="0.2">DATA aec179ae · BUILD 6f25b4a</text>

</svg>